# xmcd
#
# Track frame offsets: 
#        180
#        6443
#        20061
#        32754
#        45416
#        56691
#        70121
#        80009
#        91677
#        105316
#        120103
#        144798
#        159572
#        174324
#        186582
#        199898
#        213941
#        226714
#
# Disc length: 3219 seconds
#
# Revision: 0
# Processed by: cddbd v1.5.2PL0 Copyright (c) Steve Scherf et al.
# Submitted via: ExactAudioCopyFreeDBPlugin 1.0
#
DISCID=e00c9112
DTITLE=Various Artist - The Voices Of The Great Divas [CD 10)
DYEAR=2005
DGENRE=Jazz
TTITLE0=Lena Horne - Just One Of Those Things
TTITLE1=Billie Holiday - Getting Some Fun Out Of Life
TTITLE2=Ella Fitzgerald - Sugar Blues
TTITLE3=Gracie Fields - A Feather In Her Tyrolean Hat
TTITLE4=Peggy Lee - All Dressed Up With A Broken Heart
TTITLE5=Ella Fitzgerald - My Heart And I Decided
TTITLE6=Peggy Lee - Oh! You Crazy Moon
TTITLE7=Mildred Bailey - Evaline
TTITLE8=Peggy Lee - Deed I Do
TTITLE9=Sarah Vaughan - Black Coffee
TTITLE10=Dinah Shore - What's The Use Of Wonderin'
TTITLE11=Ella Fitzgerald - Please Tell Me The Truth
TTITLE12=Peggy Lee - Lover
TTITLE13=Ella Fitzgerald - As You Desire Me
TTITLE14=Helen Humes - He May Be Your Man
TTITLE15=Ella Fitzgerald - Into Each Life Some Rain Must Fall
TTITLE16=Zarah Leander - Der Wind Hat Mir Ein Lied Erzählt
TTITLE17=Doris Day - We'll Be Together Again
EXTD=
EXTT0=
EXTT1=
EXTT2=
EXTT3=
EXTT4=
EXTT5=
EXTT6=
EXTT7=
EXTT8=
EXTT9=
EXTT10=
EXTT11=
EXTT12=
EXTT13=
EXTT14=
EXTT15=
EXTT16=
EXTT17=
PLAYORDER=
